<?xml version="1.0" encoding="utf-8"?>
<!-- Generator: Adobe Illustrator 27.5.0, SVG Export Plug-In . SVG Version: 6.00 Build 0)  -->
<svg version="1.1" id="Calque_1" xmlns="http://www.w3.org/2000/svg" xmlns:xlink="http://www.w3.org/1999/xlink" x="0px" y="0px"
	 viewBox="0 0 500 500" enable-background="new 0 0 500 500" xml:space="preserve">
<path fill="#FFFFFF" d="M428.55,298.82c14.95-11.22,26.43-27.48,26.43-47.55c0-30.83-24.91-55.83-55.7-55.99
	c-3.5-38.81-36.09-69.22-75.81-69.22c-7.64,0-15.01,1.14-21.96,3.23c-19.54-13.92-43.45-22.11-69.27-22.11
	c-60,0-109.68,44.21-118.24,101.83c-24.32,9.56-43.41,29.46-51.89,54.3c-31.55,4.68-55.76,31.87-55.76,64.72
	c0,36.14,29.3,65.44,65.44,65.44c4.1,0,8.11,0.86,12,0.14c1.2,0.31,6.22-0.77,7.5-0.77c0,0,253.59,6.7,304.53-61.66
	C402.71,321.95,419.35,305.72,428.55,298.82z"/>
<path fill="none" stroke="#000000" stroke-width="2" stroke-miterlimit="10" d="M493.36,234.28c0-26.76-21.69-48.45-48.45-48.45
	c-0.83,0-1.66,0.02-2.48,0.06c-7.74-35.3-39.18-61.72-76.8-61.72c-12.57,0-24.45,2.97-34.99,8.21
	c-21.41-16.21-48.09-25.83-77.01-25.83c-70.54,0-127.73,57.19-127.73,127.73c0,1.86,0.05,3.72,0.13,5.56
	c-28,5.19-49.96,27.53-54.58,55.72c-19.73,8.07-33.63,27.45-33.63,50.09"/>
</svg>
