<svg width="4209" height="436" viewBox="0 0 4209 436" fill="none" xmlns="http://www.w3.org/2000/svg">
<g filter="url(#filter0_i_29_10)">
<path d="M701.5 0.0650059C550.063 -3.39518 487 138.065 339 138.065C234.448 138.065 142.899 3.32995 0 0.0648344V435.063H4209V0.0624272C4057.56 -3.39776 3994.5 138.065 3846.5 138.065C3741.95 138.065 3650.4 3.33012 3507.5 0.0650059C3356.06 -3.39518 3293 138.065 3145 138.065C3040.45 138.065 2948.9 3.32976 2806 0.0646397C2654.56 -3.39555 2591.5 138.065 2443.5 138.065C2338.95 138.065 2247.4 3.32791 2104.5 0.0627934C1953.06 -3.39739 1890 138.065 1742 138.065C1637.45 138.065 1545.9 3.33049 1403 0.0653721C1251.56 -3.39481 1188.5 138.065 1040.5 138.065C935.948 138.065 844.399 3.33012 701.5 0.0650059Z" fill="#77DFF2"/>
</g>
<defs>
<filter id="filter0_i_29_10" x="0" y="-3.05176e-05" width="4234" height="452.063" filterUnits="userSpaceOnUse" color-interpolation-filters="sRGB">
<feFlood flood-opacity="0" result="BackgroundImageFix"/>
<feBlend mode="normal" in="SourceGraphic" in2="BackgroundImageFix" result="shape"/>
<feColorMatrix in="SourceAlpha" type="matrix" values="0 0 0 0 0 0 0 0 0 0 0 0 0 0 0 0 0 0 127 0" result="hardAlpha"/>
<feOffset dx="25" dy="17"/>
<feGaussianBlur stdDeviation="17"/>
<feComposite in2="hardAlpha" operator="arithmetic" k2="-1" k3="1"/>
<feColorMatrix type="matrix" values="0 0 0 0 0 0 0 0 0 0 0 0 0 0 0 0 0 0 0.25 0"/>
<feBlend mode="normal" in2="shape" result="effect1_innerShadow_29_10"/>
</filter>
</defs>
</svg>
