<?xml version="1.0" encoding="UTF-8"?><svg id="Calque_1" xmlns="http://www.w3.org/2000/svg" viewBox="0 0 427.87 153.69"><defs><style>.cls-1{fill:#77dff2;}</style></defs><path class="cls-1" d="m12.79,22.29c.5-.13.96-.08,1.39.16.42.23.67.57.74,1.01.08.44-.05.84-.36,1.2-.32.36-.74.56-1.25.61-2.64.22-5.09.64-7.35,1.26-.5.13-.96.08-1.38-.15-.42-.23-.67-.57-.74-1.01-.08-.44.05-.84.37-1.2.32-.36.74-.56,1.25-.61.78-.04,1.45-.1,2.02-.17L4.11,3.8c-.56.12-1.21.29-1.96.51-.5.13-.96.08-1.39-.16C.35,3.92.1,3.58.02,3.14c-.08-.44.05-.84.36-1.2.32-.36.74-.56,1.25-.61,2.64-.22,5.09-.64,7.35-1.26.5-.13.96-.08,1.38.15.42.23.67.57.74,1.01.08.44-.05.84-.37,1.2s-.74.56-1.25.61c-.81.05-1.45.1-1.94.16l3.35,19.57c.48-.1,1.11-.27,1.88-.49Z"/><path class="cls-1" d="m36.21,18.65c.37.3.57.65.6,1.05s-.12.77-.44,1.09c-1.97,2.02-4.48,3.1-7.53,3.21-3.21.12-5.83-.7-7.86-2.47-2.04-1.77-3.1-3.83-3.19-6.18-.1-2.57.8-4.77,2.68-6.59,1.89-1.82,4.28-2.78,7.17-2.9,3.05-.12,5.52.71,7.4,2.48,1.48,1.4,1.88,2.69,1.2,3.85-.44.78-1.17,1.17-2.21,1.16-.67,0-1.24-.21-1.71-.64-.47-.43-.7-.94-.7-1.52.03-.47.2-.89.5-1.26-.84-.98-2.29-1.43-4.36-1.35-1.99.08-3.6.74-4.84,1.98-1.23,1.25-1.82,2.8-1.75,4.66.07,1.77.81,3.22,2.24,4.37,1.43,1.15,3.16,1.68,5.21,1.6,2.04-.08,3.85-.89,5.42-2.43.3-.3.67-.47,1.11-.5.44-.03.79.1,1.06.38Z"/><path class="cls-1" d="m57.43,17.49l-13.65-1.13c.21,1.48.92,2.73,2.12,3.77,1.2,1.03,2.62,1.62,4.27,1.75,1.91.16,3.61-.36,5.11-1.56.33-.29.72-.44,1.17-.46.44-.02.83.1,1.18.35.39.28.6.62.63,1.03.03.41-.11.74-.41,1.01-2.23,1.86-4.87,2.66-7.91,2.41-2.81-.23-5.14-1.32-6.99-3.26-1.85-1.94-2.67-4.15-2.47-6.63.21-2.54,1.34-4.61,3.38-6.21,2.04-1.6,4.44-2.28,7.2-2.05,2.68.22,4.83,1.14,6.43,2.74,1.61,1.61,2.46,3.67,2.56,6.2.03.61-.22,1.12-.75,1.52-.53.41-1.15.58-1.87.52Zm-6.59-8.33c-1.73-.14-3.2.17-4.4.95-1.21.78-2.02,1.92-2.43,3.44l12.65,1.05c-.35-3.33-2.29-5.15-5.82-5.44Z"/><path class="cls-1" d="m81.11,24.04c.3.37.42.76.37,1.16-.06.4-.28.72-.66.97-2.35,1.57-5.03,2.08-8.04,1.55-3.16-.56-5.55-1.91-7.17-4.07-1.62-2.16-2.22-4.4-1.81-6.71.45-2.54,1.78-4.5,4.01-5.88,2.23-1.38,4.77-1.82,7.62-1.32,3.01.53,5.24,1.85,6.71,3.98,1.15,1.68,1.27,3.02.36,4.02-.59.67-1.39.89-2.4.67-.66-.14-1.17-.47-1.54-.99-.37-.52-.49-1.06-.36-1.63.13-.45.38-.83.75-1.13-.62-1.13-1.94-1.88-3.98-2.23-1.96-.35-3.68-.04-5.15.92-1.47.96-2.36,2.35-2.69,4.18-.31,1.74.12,3.32,1.27,4.74,1.16,1.42,2.74,2.31,4.75,2.66,2.01.35,3.95-.06,5.81-1.23.36-.23.75-.32,1.19-.25.43.07.75.26.96.6Z"/><path class="cls-1" d="m105.25,17.71c.18.8-.06,1.46-.7,1.96-.64.5-1.41.62-2.3.35-.99-.31-1.57-.92-1.75-1.81-1.27-.24-2.63.05-4.07.87-1.44.82-2.66,2.01-3.65,3.56l-1.56,6.36c.21.03.49.07.85.12.36.05.63.1.8.15.49.07.86.28,1.13.62.26.34.34.72.24,1.13-.1.39-.35.68-.75.87-.41.19-.83.21-1.27.05-1.55-.52-2.62-.85-3.19-.99-.68-.17-1.78-.37-3.29-.6-.46-.07-.83-.28-1.1-.63-.27-.36-.36-.73-.26-1.12.1-.41.35-.71.74-.89.39-.18.82-.19,1.29-.03.15.04.4.12.76.24.36.12.62.22.79.28l3.03-12.33c-.71-.13-1.25-.22-1.62-.26-.51-.08-.92-.31-1.21-.69-.29-.38-.38-.79-.28-1.23.11-.43.38-.75.81-.94.43-.19.9-.21,1.39-.04.98.33,2.05.64,3.21.93.45.11.8.35,1.05.71.24.36.32.73.23,1.09l-.47,1.92c2.24-1.73,4.71-2.42,7.42-2.05,1.04.12,1.9.39,2.58.82.68.43,1.08.96,1.19,1.59Z"/><path class="cls-1" d="m121.99,32.43l-13.04-4.21c-.13,1.49.27,2.87,1.21,4.15.93,1.28,2.19,2.17,3.76,2.68,1.82.59,3.6.47,5.34-.36.39-.2.81-.26,1.24-.18.44.08.79.29,1.07.61.32.36.45.74.38,1.15-.06.4-.27.7-.63.89-2.6,1.3-5.35,1.48-8.25.54-2.68-.87-4.71-2.46-6.07-4.77-1.36-2.31-1.66-4.65-.89-7.02.79-2.43,2.35-4.19,4.7-5.28,2.35-1.09,4.84-1.21,7.48-.35,2.56.83,4.44,2.21,5.64,4.14,1.2,1.93,1.56,4.14,1.08,6.62-.11.6-.47,1.04-1.08,1.31-.61.28-1.25.3-1.94.08Zm-4.52-9.62c-1.65-.53-3.15-.56-4.5-.08-1.35.48-2.4,1.41-3.15,2.8l12.08,3.9c.42-3.32-1.05-5.53-4.43-6.62Z"/><path class="cls-1" d="m142.36,45.71c.49.11.86.37,1.12.8.26.42.29.85.11,1.29-.18.43-.51.71-.98.84-.47.13-.93.05-1.38-.23-.52-.36-1.17-.73-1.94-1.1-.55-.23-.97-.57-1.27-1.03-.3-.45-.43-.93-.39-1.42-2.18.45-4.49.16-6.92-.86-1.67-.7-2.87-1.69-3.59-2.98-.72-1.29-.81-2.59-.25-3.91.58-1.38,1.59-2.32,3.03-2.81,1.44-.49,3.07-.45,4.89.12s3.72,1.71,5.7,3.41l.55-1.3c.51-1.22.58-2.34.21-3.36-.37-1.02-1.05-1.77-2.02-2.27s-2.08-.78-3.34-.87c.02.76-.33,1.33-1.05,1.71-.72.38-1.48.39-2.28.03-1.01-.47-1.5-1.2-1.48-2.19.02-.99.53-1.67,1.53-2.05,1.96-.8,4.14-.71,6.53.29,2.48,1.04,4.16,2.43,5.02,4.18.87,1.75.85,3.69-.04,5.81l-3.16,7.53c.47.15.94.27,1.4.37Zm-10.56-4.32c1.35.52,2.57.8,3.65.84,1.08.04,2.23-.17,3.46-.63l.45-1.08c-1.29-1.41-2.79-2.48-4.51-3.2-1.22-.51-2.27-.67-3.16-.49-.89.19-1.51.69-1.86,1.52-.23.56-.17,1.12.2,1.69.37.57.95,1.02,1.77,1.36Z"/><path class="cls-1" d="m176.15,63.31c.43.18.73.47.9.86.17.4.16.78-.04,1.16-.19.36-.5.57-.92.65-.42.08-.83,0-1.24-.24-1.38-.88-2.28-1.44-2.71-1.67-.5-.27-1.47-.71-2.9-1.32-.42-.2-.72-.5-.89-.89-.17-.4-.16-.77.03-1.13.2-.38.51-.6.93-.68.42-.08.83.01,1.22.27l1.25.78,4.15-7.8c.45-.85.7-1.63.73-2.33s-.15-1.23-.55-1.57c-1.55-1.49-4.29-1.71-8.21-.68l-.13.24-4.15,7.8,1.38.62c.45.19.77.48.94.88.17.4.16.78-.04,1.16-.19.36-.5.58-.94.66-.44.08-.85,0-1.24-.26-1.38-.88-2.27-1.44-2.68-1.65-.5-.27-1.47-.71-2.9-1.32-.43-.18-.74-.47-.91-.89-.18-.41-.17-.79.02-1.15.2-.38.51-.6.93-.68.42-.08.84.02,1.25.29l1.29.8,4.15-7.8c.98-1.84,1.1-3.12.37-3.84-1.47-1.42-4.22-1.61-8.23-.57l-4.25,7.98,1.38.62c.43.18.73.47.9.86.17.4.16.78-.04,1.16-.19.36-.5.57-.92.65-.42.08-.83,0-1.24-.24-1.38-.88-2.28-1.44-2.71-1.67-.5-.27-1.47-.71-2.9-1.32-.42-.2-.72-.5-.89-.89-.17-.4-.16-.77.03-1.13.2-.38.51-.6.93-.68.42-.08.83.01,1.22.27l1.29.8,6.04-11.36c-.4-.19-.93-.4-1.59-.65-.46-.19-.78-.49-.97-.9-.19-.41-.19-.81.03-1.2.2-.38.52-.6.98-.68.45-.08.88.02,1.3.29.41.32.95.69,1.62,1.09l1.27.67c.41.22.69.53.85.93.15.4.14.78-.05,1.13l-.6,1.13c4.41-.85,7.57-.1,9.48,2.27.79.93,1.07,2.13.81,3.59,4.64-1.06,8-.31,10.1,2.25.78.95,1.1,2.06.95,3.34-.15,1.28-.52,2.47-1.11,3.58l-4.15,7.8,1.38.62Z"/><path class="cls-1" d="m240.93,90.61c1.17,1.2,1.96,2.46,2.39,3.79.42,1.32.51,2.54.25,3.63-.26,1.1-.78,2.07-1.57,2.91-.79.84-1.72,1.45-2.81,1.83s-2.35.44-3.79.19c-1.44-.26-2.84-.88-4.2-1.86-1.87-1.31-3.01-2.83-3.44-4.56-.09-.43-.01-.8.25-1.1.25-.3.61-.48,1.08-.53.38-.02.75.09,1.1.33.35.24.62.56.79.96.39.97,1.03,1.79,1.9,2.46.88.67,1.78,1.1,2.71,1.28.93.18,1.81.12,2.64-.2.83-.32,1.42-.87,1.74-1.68.87-2.21.24-4.29-1.87-6.25s-5.08-3.21-8.9-3.78c-1.18,1.88-2.49,3.73-3.93,5.54-1.96,2.23-4.15,1.84-6.57-1.18-.73-.97-1.27-1.82-1.61-2.55-.35-.73-.51-1.46-.49-2.19s.46-1.33,1.32-1.81,2.12-.79,3.79-.94c1.86-.16,3.7-.18,5.52-.05,1.02-1.69,1.93-3.32,2.74-4.91-2.15-.96-4.18-1.99-6.08-3.1-.4-.23-.67-.56-.8-.98-.13-.42-.09-.8.13-1.13.18-.33.49-.54.92-.61s.83,0,1.22.22c2.13,1.23,4.08,2.22,5.85,2.96.79-1.81,1.39-3.44,1.81-4.91.1-.39.34-.67.72-.83s.78-.17,1.2,0c.44.18.78.46,1.02.85.24.39.29.79.16,1.18-.38,1.41-.99,3.05-1.83,4.93,1.32.48,2.52.83,3.6,1.07.45.11.82.33,1.09.68s.39.73.38,1.14c-.05.42-.24.74-.57.95-.32.22-.71.27-1.17.17-1.44-.34-2.96-.8-4.56-1.37-.88,1.75-1.63,3.16-2.25,4.22,4.24.91,7.61,2.65,10.12,5.22Zm-20.7-1.15l2.71,1.74c.56-.73,1.38-1.88,2.45-3.46-1.51-.04-2.89.05-4.13.26-.85.17-1.32.34-1.4.5-.09.16.04.48.38.96Zm28.93,2.2c.21.4.22.79.05,1.17-.17.38-.46.64-.89.77-.39.12-.79.09-1.2-.11-.41-.2-.7-.5-.88-.9-1.01-2.11-2.65-4.02-4.91-5.71-.35-.27-.57-.62-.68-1.03-.1-.41-.04-.77.19-1.08.26-.31.61-.49,1.05-.52s.85.08,1.23.35c2.79,2.03,4.8,4.38,6.03,7.06Z"/><path class="cls-1" d="m255.69,113.63c-1-.6-1.8-1.49-2.39-2.69-.6-1.19-.93-2.55-.99-4.08-.07-1.53.11-3.09.53-4.7.42-1.6,1.21-3.19,2.38-4.76,1.17-1.57,2.62-2.92,4.35-4.05.37-.22.78-.28,1.21-.17.44.1.8.34,1.1.7.27.35.39.73.35,1.15-.04.42-.23.74-.57.95-3.37,2.11-5.4,4.94-6.08,8.5-.4,2.19-.21,4,.59,5.44.71,1.29,1.61,1.71,2.72,1.28.39-.16.78-.42,1.16-.8.31-.31.69-.48,1.13-.5.45-.02.88.11,1.29.38.39.31.61.69.68,1.13.07.44-.04.8-.33,1.08-2.28,2.24-4.65,2.62-7.11,1.15Zm18.84,3.89c-.38-.28-.61-.64-.71-1.07s-.03-.85.2-1.23c.88-1.43,1.19-2.9.93-4.42-.27-1.52-1.07-2.92-2.4-4.22-.34-.33-.53-.73-.58-1.19-.04-.46.08-.82.36-1.1.34-.32.76-.47,1.27-.45.5.02.94.2,1.3.55,1.81,1.76,2.96,3.88,3.45,6.36.49,2.48.03,4.7-1.39,6.67-.24.35-.6.54-1.08.56-.48.02-.93-.12-1.34-.45Z"/><path class="cls-1" d="m289.77,133.23c-1.09-2.11-1.22-4.54-.39-7.31.83-2.77,2.68-6.01,5.54-9.73.78-1.04,1.29-1.87,1.53-2.49.24-.62.28-1.29.14-2-.09-.41-.01-.77.24-1.08.25-.3.58-.45,1.01-.45.46,0,.89.14,1.28.42.39.29.62.64.67,1.07.2,1.09.14,2.11-.19,3.06-.32.95-.98,2.07-1.97,3.36-2.34,3.1-3.94,5.73-4.79,7.89-.86,2.16-1,4-.43,5.51.84,2.33,2.58,3.76,5.24,4.26,2.65.51,5.68,0,9.07-1.54.4-.18.83-.19,1.28-.02.45.17.77.44.96.83.21.45.26.89.13,1.31-.13.42-.4.73-.81.93-3.71,1.78-7.35,2.29-10.9,1.52-3.55-.76-6.09-2.61-7.61-5.54Z"/><path class="cls-1" d="m328.81,148.53c-1.13-.28-2.16-.9-3.08-1.87-.92-.96-1.64-2.17-2.15-3.61-.51-1.44-.8-2.99-.87-4.64-.07-1.66.22-3.41.88-5.25.66-1.84,1.64-3.56,2.97-5.15.29-.32.66-.49,1.11-.52.45-.03.86.09,1.25.34.36.25.59.58.67,1,.08.41,0,.77-.27,1.08-2.61,3-3.71,6.3-3.32,9.91.25,2.21.97,3.88,2.16,5.03,1.05,1.02,2.04,1.16,2.97.42.33-.26.62-.63.87-1.1.2-.39.51-.66.94-.81.42-.15.87-.15,1.34-.01.46.18.79.48.98.88.19.41.19.78,0,1.12-1.52,2.81-3.67,3.87-6.46,3.18Zm19.16-1.81c-.44-.15-.77-.43-1-.82-.22-.39-.28-.8-.17-1.24.43-1.62.29-3.12-.41-4.5-.7-1.37-1.88-2.48-3.54-3.33-.43-.22-.73-.54-.9-.97-.17-.42-.17-.81.03-1.15.23-.4.59-.67,1.08-.81.49-.13.95-.09,1.4.14,2.25,1.15,3.97,2.84,5.17,5.06,1.2,2.22,1.41,4.48.63,6.78-.13.41-.42.69-.87.86-.45.16-.92.15-1.41-.04Z"/><path class="cls-1" d="m371.89,153.65c-1.16.14-2.34-.08-3.54-.66s-2.3-1.45-3.29-2.62-1.81-2.51-2.46-4.04c-.65-1.52-1-3.26-1.04-5.22-.04-1.96.28-3.91.95-5.87.16-.4.44-.7.85-.88.41-.18.84-.22,1.29-.12.43.11.76.34.98.69.23.36.27.72.13,1.1-1.38,3.73-1.24,7.21.4,10.44,1.02,1.98,2.29,3.29,3.8,3.94,1.35.58,2.32.36,2.93-.66.22-.36.36-.81.43-1.34.05-.43.25-.8.59-1.09.34-.29.76-.45,1.25-.49.5,0,.91.17,1.23.48.32.31.46.66.4,1.05-.43,3.17-2.07,4.92-4.92,5.26Zm17.27-8.48c-.47.01-.88-.13-1.22-.41s-.55-.65-.6-1.1c-.17-1.67-.83-3.02-1.97-4.06-1.14-1.04-2.64-1.66-4.49-1.86-.48-.06-.87-.25-1.18-.58-.31-.33-.44-.7-.39-1.09.08-.46.32-.84.72-1.14.41-.3.86-.42,1.36-.37,2.51.29,4.72,1.25,6.62,2.91s2.9,3.69,2.99,6.12c.02.43-.15.8-.51,1.11-.37.32-.81.47-1.33.47Z"/><path class="cls-1" d="m414,141.74c-1.01.58-2.18.83-3.52.76s-2.68-.45-4.04-1.14-2.64-1.62-3.83-2.77c-1.19-1.15-2.18-2.62-2.98-4.41s-1.26-3.72-1.39-5.78c0-.43.14-.81.44-1.14s.69-.53,1.15-.61c.44-.07.83.02,1.17.26s.53.56.55.96c.18,3.97,1.64,7.13,4.41,9.48,1.71,1.43,3.38,2.15,5.03,2.17,1.47.02,2.28-.56,2.45-1.74.06-.42.02-.89-.12-1.4-.12-.42-.08-.83.13-1.23.2-.4.53-.71.96-.93.46-.18.9-.2,1.32-.04.42.16.68.43.78.82.83,3.08,0,5.33-2.5,6.75Zm12.65-14.5c-.43.19-.86.22-1.29.09s-.76-.39-.98-.78c-.81-1.47-1.94-2.47-3.39-2.98-1.45-.51-3.07-.51-4.86.02-.46.13-.9.11-1.32-.08-.42-.19-.68-.47-.78-.85-.11-.45-.03-.9.23-1.33.26-.43.63-.72,1.12-.87,2.42-.71,4.84-.67,7.23.12,2.4.79,4.1,2.28,5.12,4.49.19.38.17.79-.04,1.22s-.57.75-1.05.94Z"/></svg>